<svg xmlns="http://www.w3.org/2000/svg" width="95.628" height="11.588" viewBox="0 0 95.628 11.588">
  <g id="loading" transform="translate(-13.582)">
    <path id="Path_922" data-name="Path 922" d="M162.642.136H171.4V11.7h-8.755Zm2.995,8.612h2.8V3.063h-2.8Z" transform="translate(-137.348 -0.115)" fill="#2b2929"/>
    <path id="Path_923" data-name="Path 923" d="M247.208.176V11.72h-2.878V8.936h-2.965V11.72h-2.92V.176Zm-2.969,2.953h-2.818V5.888h2.818Z" transform="translate(-201.362 -0.149)" fill="#2b2929"/>
    <path id="Path_924" data-name="Path 924" d="M531,.077V2.964h-5.785V8.7h2.826V5.915h2.935v5.724h-8.73V.077Z" transform="translate(-441.024 -0.065)" fill="#2b2929"/>
    <path id="Path_925" data-name="Path 925" d="M320.071,8.753v2.884h-5.86V.057h5.849V2.914h2.869V8.753Zm-.134-5.745h-2.768V8.7h2.768Z" transform="translate(-265.345 -0.048)" fill="#2b2929"/>
    <path id="Path_926" data-name="Path 926" d="M90.223.078V8.716h5.812v2.92h-8.7V.078Z" transform="translate(-73.752 -0.066)" fill="#2b2929"/>
    <path id="Path_927" data-name="Path 927" d="M433.394,5.952h-2.862v5.661h-2.954V.06h2.887V2.912h2.908V5.975Z" transform="translate(-361.081 -0.051)" fill="#2b2929"/>
    <path id="Path_928" data-name="Path 928" d="M464.838,6.027l2.973-.211V.121h2.907V11.682h-2.871V8.85h-2.985c0-1.005,0-1.928,0-2.848l-.023.025" transform="translate(-392.547 -0.102)" fill="#2b2929"/>
    <rect id="Rectangle_1769" data-name="Rectangle 1769" width="2.847" height="11.584" transform="translate(60.615)" fill="#2b2929"/>
    <rect id="Rectangle_1770" data-name="Rectangle 1770" width="2.839" height="2.824" transform="translate(100.534 8.738)" fill="#2b2929"/>
    <rect id="Rectangle_1771" data-name="Rectangle 1771" width="2.829" height="2.797" transform="translate(106.382 8.736)" fill="#2b2929"/>
    <rect id="Rectangle_1772" data-name="Rectangle 1772" width="2.799" height="2.815" transform="translate(94.718 8.726)" fill="#2b2929"/>
  </g>
</svg>
